<svg width="290.3" height="67" viewBox="0 0 290.3 67" xmlns="http://www.w3.org/2000/svg">
  <path fill="#000" d="M118.9 12.6c0 1.2-.1 2.4-.2 3.6-.1 1.1-.3 2.1-.7 3-.3.9-.8 1.5-1.4 2.1-.6.5-1.5.8-2.5.8-.3 0-.6 0-.9-.1-.3-.1-.6-.2-.9-.4-.3-.2-.6-.4-.8-.8-.2-.3-.4-.7-.5-1.2-.3.4-.8.8-1.5 1.1-.7.3-1.5.4-2.4.4-.5 0-1-.1-1.6-.2-.5-.2-1-.5-1.4-.9-.4-.4-.8-1.1-1-1.9-.3-.8-.4-1.9-.4-3.2 0-1.4.2-2.6.5-3.5.4-.9.8-1.6 1.5-2.1.6-.5 1.3-.8 2.2-1 .8-.2 1.7-.3 2.7-.3.5 0 1.1 0 1.7.1.6.1 1.2.2 1.7.3v10.1c0 .3.1.6.3.9.2.3.5.4.9.4s.8-.2 1-.5c.3-.3.4-.8.6-1.4.1-.6.2-1.4.3-2.3 0-.9.1-1.9.1-3 0-1.6-.1-2.9-.3-3.9-.2-1-.6-1.8-1.1-2.3-.6-.6-1.4-.9-2.4-1.1-1-.2-2.4-.3-4.1-.3-1.6 0-3 .1-4 .4-1 .3-1.8.8-2.4 1.5-.6.7-1 1.7-1.2 2.9-.2 1.2-.3 2.8-.3 4.7 0 1.7.1 3.1.3 4.3.2 1.2.5 2.1 1.1 2.9.5.7 1.3 1.3 2.3 1.6 1 .3 2.4.5 4.1.5h1.3c.5 0 1-.1 1.5-.1s.9-.1 1.4-.1c.4 0 .7-.1 1-.1v2.3c-.3 0-.6.1-1.1.1-.4 0-.9.1-1.3.1-.5 0-.9.1-1.4.1h-1.3c-2.1 0-3.8-.2-5.2-.6-1.4-.4-2.4-1.1-3.2-2-.8-.9-1.3-2.1-1.6-3.6-.3-1.5-.4-3.2-.4-5.4 0-2.3.2-4.2.6-5.8.4-1.5 1-2.7 1.8-3.6.8-.9 1.9-1.5 3.3-1.9 1.3-.4 3-.6 4.9-.6 1.9 0 3.6.1 4.9.4 1.3.3 2.4.8 3.3 1.5.8.7 1.4 1.8 1.8 3.1.3 1.2.4 2.9.4 5zm-8.4-2.4c-.1 0-.3-.1-.5-.1h-.7c-.5 0-1 .1-1.4.2-.5.1-.9.3-1.2.7-.4.3-.6.8-.8 1.4-.2.6-.3 1.4-.3 2.3 0 .9.1 1.6.2 2.1s.3 1 .5 1.2c.2.3.5.5.8.6.3.1.6.1 1 .1.5 0 .9-.1 1.2-.2.3-.1.6-.3.8-.5.2-.2.3-.4.4-.7s.1-.5.1-.8v-6.3zM136 16.5c0 1.8-.1 3.3-.4 4.5-.2 1.2-.6 2.2-1.2 2.9-.5.7-1.3 1.3-2.1 1.6-.9.3-2 .5-3.3.5h-1.5c-.4 0-.8-.1-1.2-.1-.4 0-.7-.1-1-.1-.3 0-.6-.1-.9-.1v-23h2.8v7.8c1-1 2.2-1.4 3.6-1.4 1.9 0 3.3.6 4 1.9.8 1.2 1.2 3 1.2 5.5zm-5.7-5.1c-.5 0-.9.1-1.3.3-.4.2-.7.4-1 .7-.3.3-.5.6-.6.9-.2.3-.2.6-.2.9v9.2c.2 0 .5.1.9.1h1.3c.8 0 1.4-.1 1.9-.4.5-.3.9-.7 1.1-1.3.3-.6.5-1.3.6-2.1.1-.8.2-1.8.2-3 0-1.1 0-1.9-.1-2.6-.1-.7-.3-1.2-.5-1.6-.2-.4-.5-.7-.9-.9s-.9-.2-1.4-.2zM149.3 25.7l-.2-1.3c-.5.5-1 .9-1.6 1.2-.6.3-1.3.4-2.2.4-.9 0-1.7-.1-2.3-.4-.6-.2-1.1-.6-1.4-1.1-.4-.5-.6-1.1-.8-1.9-.2-.7-.2-1.6-.2-2.6V9.3h2.8v11c0 .5 0 1 .1 1.4.1.4.2.7.3 1s.4.5.7.6c.3.1.7.2 1.2.2s.9-.1 1.2-.3c.4-.2.7-.4 1-.7.3-.3.5-.6.6-.9.2-.3.2-.6.3-.9V9.3h2.8v16.4h-2.3zM165.8 25.7l-.2-1.4c-.5.5-1.1.9-1.7 1.2-.6.3-1.4.4-2.2.4-1.1 0-1.9-.2-2.6-.5-.7-.3-1.2-.8-1.6-1.4-.4-.6-.7-1.4-.9-2.4-.2-1-.2-2.1-.2-3.4 0-3.2.6-5.6 1.7-7 1.1-1.4 2.9-2.2 5.5-2.2h1c.3 0 .6.1.8.1V2.7h2.8v23h-2.4zm-3.6-2.1c.5 0 1-.1 1.3-.3.4-.2.7-.4 1-.7s.5-.6.6-.9c.1-.3.2-.6.2-.9v-9.2c-.2 0-.5-.1-.9-.1h-1.3c-.8 0-1.4.2-1.9.5s-.9.8-1.2 1.4c-.3.6-.5 1.3-.6 2.2-.1.9-.2 1.9-.2 3 0 1 .1 1.8.2 2.4.1.6.3 1.2.5 1.5.2.4.6.7.9.8.5.2.9.3 1.4.3zM182.4 25.7l-.2-1.4c-.5.5-1.1.9-1.7 1.2-.6.3-1.4.4-2.2.4-1.1 0-1.9-.2-2.6-.5-.7-.3-1.2-.8-1.6-1.4-.4-.6-.7-1.4-.9-2.4-.2-1-.2-2.1-.2-3.4 0-3.2.6-5.6 1.7-7 1.1-1.4 2.9-2.2 5.5-2.2h1c.3 0 .6.1.8.1V2.7h2.8v23h-2.4zm-3.6-2.1c.5 0 1-.1 1.3-.3.4-.2.7-.4 1-.7.3-.3.5-.6.6-.9.1-.3.2-.6.2-.9v-9.2c-.2 0-.5-.1-.9-.1h-1.3c-.8 0-1.4.2-1.9.5s-.9.8-1.2 1.4c-.3.6-.5 1.3-.6 2.2-.1.9-.2 1.9-.2 3 0 1 .1 1.8.2 2.4.1.6.3 1.2.5 1.5.2.4.6.7.9.8.4.2.9.3 1.4.3zM192.2 18.5c0 1.1.1 1.9.2 2.6.1.7.3 1.2.6 1.6.2.4.5.6.9.7.3.1.7.2 1.1.2.9 0 1.8-.1 2.5-.2.8-.1 1.4-.2 1.9-.3v2.4c-.5.2-1.2.3-2 .4-.8.1-1.5.1-2.1.1-.9 0-1.8-.1-2.5-.3-.7-.2-1.4-.6-1.9-1.2s-.9-1.4-1.1-2.5c-.3-1.1-.4-2.6-.4-4.4 0-1.5.1-2.8.4-3.9.3-1.1.6-1.9 1.1-2.6.5-.7 1.1-1.2 1.9-1.5.7-.3 1.6-.5 2.6-.5 1.9 0 3.2.6 4.1 1.9.8 1.2 1.2 2.9 1.2 5.1v2.5h-8.5zm3.2-7.1c-.5 0-1 .1-1.3.2-.4.2-.7.4-.9.8-.2.4-.4.9-.6 1.5s-.2 1.4-.3 2.3h5.7v-.9c0-1.2-.2-2.2-.6-2.9-.4-.6-1.1-1-2-1zM205.3 25.7V9.3h2.3l.2 1.5c1.1-1.1 2.4-1.7 4-1.7.9 0 1.7.1 2.4.3.6.2 1.1.6 1.5 1 .4.5.7 1.1.8 1.8.2.7.2 1.6.2 2.6v10.8H214v-11c0-1-.2-1.8-.5-2.3-.3-.5-1.1-.8-2.1-.8-.5 0-.9.1-1.3.3-.4.2-.8.4-1.1.7-.3.3-.5.6-.7.9-.2.3-.2.6-.2.9v11.5h-2.8zM233.5 16.5c0 1.8-.1 3.3-.4 4.5-.2 1.2-.6 2.2-1.2 2.9-.5.7-1.3 1.3-2.1 1.6-.9.3-2 .5-3.3.5H225c-.4 0-.8-.1-1.2-.1-.4 0-.7-.1-1-.1-.3 0-.6-.1-.9-.1v-23h2.8v7.8c1-1 2.2-1.4 3.6-1.4 1.9 0 3.3.6 4 1.9.8 1.2 1.2 3 1.2 5.5zm-5.7-5.1c-.5 0-.9.1-1.3.3-.4.2-.7.4-1 .7-.3.3-.5.6-.6.9-.2.3-.2.6-.2.9v9.2c.2 0 .5.1.9.1h1.3c.8 0 1.4-.1 1.9-.4.5-.3.9-.7 1.1-1.3.3-.6.5-1.3.6-2.1.1-.8.2-1.8.2-3 0-1.1 0-1.9-.1-2.6-.1-.7-.3-1.2-.5-1.6-.2-.4-.5-.7-.9-.9-.4-.1-.9-.2-1.4-.2zM238.3 25.7V9.3h2.3l.2 1.7c.4-.6.8-1 1.4-1.4.5-.3 1.2-.5 2-.5h1c.3 0 .5.1.7.1v2.9c-.3-.1-.6-.1-1-.2s-.7-.1-1-.1c-.5 0-1 .1-1.4.3-.4.2-.7.5-.9.9-.2.4-.4.8-.5 1.2-.1.4-.1.9-.1 1.3v10.1h-2.7zM260.9 17.2c0 1.7-.1 3.2-.4 4.3-.3 1.1-.7 2-1.2 2.7-.5.7-1.2 1.1-2 1.4-.8.3-1.7.4-2.7.4-1 0-1.9-.1-2.7-.4-.8-.3-1.4-.7-2-1.4-.5-.7-.9-1.6-1.2-2.7-.3-1.1-.4-2.6-.4-4.3 0-2.8.5-4.9 1.5-6.2 1-1.3 2.6-2 4.7-2s3.7.7 4.7 2c1.2 1.3 1.7 3.4 1.7 6.2zm-2.9.5c0-1.2-.1-2.1-.2-3-.1-.8-.3-1.5-.5-2-.3-.5-.6-.8-1-1.1-.4-.2-1-.3-1.6-.3-.7 0-1.2.1-1.6.3-.4.2-.8.6-1 1.1-.3.5-.4 1.1-.5 2-.1.8-.2 1.8-.2 3 0 2.1.3 3.7.8 4.6.5.9 1.4 1.4 2.6 1.4 1.2 0 2.1-.5 2.6-1.4.4-.9.6-2.5.6-4.6zM274.5 25.4c-.5.2-1.1.3-1.7.4-.6.1-1.2.1-1.8.1-.9 0-1.8-.1-2.5-.3-.7-.2-1.3-.6-1.8-1.2s-.8-1.5-1.1-2.7c-.2-1.1-.4-2.7-.4-4.5 0-1.5.1-2.7.3-3.7s.6-1.9 1-2.5c.5-.6 1.1-1.1 1.8-1.4.7-.3 1.6-.4 2.6-.4.5 0 1.2.1 1.9.2s1.3.2 1.8.3V12c-.6-.1-1.2-.2-1.7-.3-.5-.1-1.2-.1-2.1-.1-.5 0-.9.1-1.2.3-.3.2-.6.5-.8 1-.2.5-.4 1.1-.5 1.9-.1.8-.1 1.8-.1 3s.1 2.2.2 3c.1.7.3 1.3.5 1.7.2.4.5.7.8.8.3.1.7.2 1.1.2.9 0 1.6-.1 2.2-.2.6-.1 1.1-.2 1.6-.3v2.4zM287.1 25.7l-4.4-8.2-1 1.1v7h-2.8v-23h2.8v12.5l5-5.9h3.4l-5.5 6.3 5.8 10.1h-3.3zM107.8 60.7l-1.1-5.4h-5.5l-1.1 5.4h-4.7l5.3-23h6.6l5 23h-4.5zm-3.9-20.1-2 10.9h4l-2-10.9zM114.5 52.9c0-1.7.2-3.1.5-4.2s.8-2.1 1.4-2.8c.6-.7 1.4-1.2 2.4-1.5 1-.3 2.2-.4 3.6-.4h1.2v-6.3h4.4v23h-3.5l-.3-1.3c-.5.5-1.1.9-1.8 1.2-.7.3-1.4.4-2.3.4-.9 0-1.7-.1-2.4-.4-.7-.3-1.2-.7-1.7-1.3-.5-.6-.8-1.4-1-2.5-.4-1-.5-2.3-.5-3.9zm6.6 4.4c.4 0 .7-.1 1-.2.3-.1.6-.3.8-.6.2-.2.4-.5.5-.8.1-.3.2-.6.2-.9v-7c-.2 0-.5 0-.7-.1h-.7c-.6 0-1.1.1-1.5.2-.4.1-.7.4-1 .8-.3.4-.4 1-.5 1.7-.1.7-.2 1.6-.2 2.8 0 .8 0 1.5.1 2s.2.9.4 1.2c.2.3.4.5.7.6s.5.3.9.3zM132.4 60.7v-23h4.5v19.2h6.7v3.8h-11.2zM145.8 41.5v-3.8h4.7v3.8h-4.7zm.2 19.2V44.3h4.4v16.4H146zM168.2 50c0 2-.6 3.4-1.8 4.3-1.2.9-3.1 1.3-5.6 1.3-.7 0-1.3 0-1.9-.1-.1.3-.2.6-.2 1 0 .1 0 .3.1.5.7-.1 1.4-.1 2.1-.1h1.7c1 0 1.9.1 2.6.3.8.2 1.4.5 2 .9.5.4.9.9 1.2 1.6.3.7.4 1.5.4 2.5 0 1.1-.2 2-.6 2.6-.4.6-1 1.1-1.7 1.5-.7.3-1.5.6-2.4.7-.9.1-1.9.1-2.9.1h-1.5c-.6 0-1.2-.1-1.8-.1-.6-.1-1.2-.1-1.7-.2s-1-.1-1.3-.2v-3.5c.4.1.9.1 1.4.2.5.1 1.1.1 1.7.2.6 0 1.2.1 1.8.1h1.7c1.1 0 1.9-.1 2.3-.4.4-.2.6-.6.6-1.1 0-.4-.1-.8-.4-1.1-.3-.3-.8-.4-1.6-.4h-1.3c-.5 0-1.1 0-1.7.1-.6 0-1.1.1-1.7.1-.5 0-1 .1-1.3.1-.3-.3-.7-.8-1-1.4-.3-.6-.5-1.4-.5-2.3 0-1.1.3-2.1.9-2.9-.6-.5-1-1.1-1.3-1.8-.3-.7-.4-1.6-.4-2.7 0-1.3.2-2.3.7-3 .4-.8 1-1.3 1.7-1.7.7-.4 1.5-.7 2.4-.8.9-.1 1.8-.2 2.8-.2 1.1 0 2 .1 2.9.4l5.4-.2v3.3l-2.1-.1c.1.7.3 1.5.3 2.5zm-4.4-.3c0-.8-.2-1.4-.6-1.7-.4-.3-1-.5-2-.5-1.2 0-2 .2-2.3.6-.4.4-.6 1-.6 1.9 0 1.4.8 2.1 2.4 2.1.5 0 .9 0 1.3-.1s.7-.2 1-.3c.3-.2.5-.4.6-.7.1-.4.2-.8.2-1.3zM172.6 60.7v-23h4.4v7.4c.5-.3 1-.6 1.5-.8.6-.2 1.2-.3 1.9-.3 1.1 0 2.1.1 2.7.4.7.3 1.2.7 1.6 1.2.4.5.6 1.2.8 2s.2 1.8.2 2.9v10.2h-4.4V50.4c0-1.1-.2-1.8-.5-2.1-.3-.3-.8-.5-1.4-.5-.8 0-1.5.2-1.9.7-.4.5-.6 1-.7 1.6v10.6h-4.2zM194.8 48.1v7.7c0 .5.1.9.3 1.1.2.2.6.3 1.1.3.3 0 .7 0 1.1-.1.4-.1.7-.1 1-.2v3.6c-.1 0-.3.1-.6.1-.3.1-.6.1-.9.1s-.7.1-1 .1h-1c-.9 0-1.7-.1-2.2-.4-.6-.3-1-.7-1.3-1.2-.3-.5-.5-1.1-.6-1.7-.1-.6-.2-1.3-.2-2.1v-7.5h-2.1v-3.8h2.1v-3.9h4.4v3.9h3.3v3.8h-3.4zM214.4 51.4c0 1.8-.1 3.3-.4 4.5-.3 1.2-.7 2.2-1.3 3-.6.7-1.4 1.3-2.4 1.6-1 .3-2.2.5-3.7.5-1.2 0-2.2-.1-3.1-.2-.9-.1-1.7-.2-2.3-.3V37.7h4.4v7.4c.5-.3 1-.6 1.6-.8.6-.2 1.2-.3 1.9-.3.9 0 1.7.1 2.4.4.7.3 1.2.7 1.7 1.2.4.6.8 1.3 1 2.3.1.9.2 2.1.2 3.5zm-6.5-3.7c-.7 0-1.3.3-1.7.8-.4.5-.6 1.1-.6 1.7v7h1.4c.6 0 1.1-.1 1.5-.2.4-.1.7-.4.9-.8.2-.4.4-1 .5-1.7.1-.7.1-1.6.1-2.8 0-.8 0-1.5-.1-2s-.2-.9-.3-1.2c-.2-.3-.4-.5-.6-.6-.4-.1-.7-.2-1.1-.2zM231.8 52.2c0 1.7-.2 3.2-.5 4.3-.3 1.1-.8 2-1.3 2.7-.6.7-1.3 1.1-2.2 1.4-.9.3-1.9.4-3.1.4-1.2 0-2.2-.1-3.1-.4-.9-.3-1.6-.7-2.2-1.4-.6-.7-1-1.6-1.3-2.7-.3-1.1-.4-2.6-.4-4.3 0-2.8.6-4.9 1.7-6.2 1.1-1.3 2.9-2 5.4-2s4.3.7 5.4 2c1.1 1.3 1.6 3.4 1.6 6.2zm-4.4.5c0-1 0-1.8-.1-2.4-.1-.6-.2-1.2-.4-1.6-.2-.4-.5-.7-.8-.8-.3-.2-.7-.2-1.2-.2s-.9.1-1.2.2c-.3.2-.6.4-.8.8-.2.4-.3.9-.4 1.6-.1.6-.1 1.4-.1 2.4 0 .9 0 1.7.1 2.3.1.6.2 1.1.4 1.4.2.4.5.6.8.8.3.2.7.2 1.2.2s.9-.1 1.3-.2c.3-.2.6-.4.8-.8.2-.4.3-.8.4-1.4-.1-.7 0-1.4 0-2.3zM243.7 60.7l-2.5-5-2.6 5h-4.8l4.9-8.5-4.4-7.9h5l2 3.9 2-3.9h4.8l-4.5 7.5 5.1 8.9h-5zM251.2 60.7v-4.3h4.9v4.3h-4.9zM264.3 61.1c0 1.1-.1 1.9-.3 2.6-.2.7-.5 1.2-.9 1.6-.4.4-1 .7-1.6.9-.7.2-1.4.3-2.4.3h-1.5c-.4 0-.9-.1-1.3-.1v-3.7c.3 0 .6.1 1.1.1h1c.6 0 1-.1 1.2-.3.2-.2.3-.6.3-1.2v-17h4.4v16.8zm-4.6-19.6v-3.8h4.7v3.8h-4.7zM279 55.7c0 1-.2 1.8-.5 2.5s-.8 1.2-1.3 1.6c-.6.4-1.3.7-2.1.9-.8.2-1.7.3-2.7.3h-1.3c-.4 0-.9-.1-1.3-.1-.4-.1-.8-.1-1.1-.2-.3-.1-.6-.1-.8-.2v-3.7c.4.1 1 .2 1.7.4.7.1 1.4.2 2.2.2.8 0 1.4-.1 1.9-.3.5-.2.8-.5.8-1.1 0-.5-.1-.9-.4-1.1-.3-.3-.8-.5-1.7-.6-1.7-.3-2.9-.9-3.6-1.7-.7-.8-1-1.9-1-3.3 0-1.8.6-3.2 1.7-3.9 1.1-.8 2.8-1.2 5.2-1.2.3 0 .7 0 1.1.1.4 0 .7.1 1.1.1.3.1.7.1 1 .2.3.1.5.1.7.2v3.7c-.5-.2-1.1-.3-1.7-.4-.6-.1-1.4-.2-2.2-.2-.8 0-1.4.1-1.7.3-.3.2-.5.5-.5 1.1 0 .4.2.7.5.9.4.2.9.4 1.6.5 1.7.3 2.9.9 3.6 1.8.5.5.8 1.7.8 3.2z"/>
  <path fill="#72bf44" d="M74.1 29.5c-.3 11.6-3 24.2-10.2 27.6-7.1 3.4-18.7-2.2-30.5-6.4-11.8-4.3-23.9-7.3-29.6-16-5.7-8.6-5.1-22.8 1.9-29.2 7-6.3 20.5-4.8 32.4-5C50 .3 60.2-1.6 66.3 2.8c6.2 4.4 8.2 15.1 7.8 26.7z"/>
  <path fill="#fff" d="m25.8 33.5-1-5.3h-5.4l-1 5.3h-4.6L19 10.9h6.5l4.9 22.6h-4.6zm-3.7-19.8-1.9 10.7h3.9l-2-10.7zM46.9 21.8c0 2.4-.2 4.4-.5 5.9s-.8 2.8-1.5 3.7c-.6.9-1.4 1.5-2.4 1.9-1 .3-2.1.5-3.3.5h-1.9c-.7 0-1.4-.1-2-.1-.7-.1-1.4-.1-2.2-.2V10.9c.8 0 1.5-.1 2.2-.2.6 0 1.2-.1 1.9-.1h1.6c1.3 0 2.4.1 3.4.4 1 .3 1.8.8 2.5 1.6s1.2 2 1.5 3.4c.5 1.5.7 3.4.7 5.8zm-4.5.2c0-1.7-.1-3.1-.2-4.1-.1-1-.3-1.8-.5-2.3-.2-.5-.5-.8-.9-1-.4-.1-.8-.2-1.3-.2h-1.4c-.2 0-.4 0-.5.1v15.2c.1 0 .3 0 .5.1h1.5c.5 0 .9-.1 1.3-.4.4-.2.7-.7.9-1.2.2-.6.4-1.4.5-2.4 0-.9.1-2.2.1-3.8zM61.5 26.7c0 1.5-.2 2.7-.6 3.6-.4.9-.9 1.6-1.5 2.1-.7.5-1.4.8-2.4 1-.9.1-1.9.2-3 .2h-1.1c-.4 0-.8-.1-1.3-.1-.4 0-.8-.1-1.2-.2-.4-.1-.7-.1-1-.2v-3.8c.3.1.6.1.9.2.4.1.7.1 1.1.2.4 0 .8.1 1.2.1h1.1c1 0 1.8-.2 2.4-.6.6-.4.9-1.1.9-2.2 0-.6-.1-1.1-.2-1.5-.1-.4-.3-.7-.5-1-.2-.3-.5-.5-.9-.6-.3-.1-.7-.3-1.2-.4-1.8-.4-3.1-1.1-3.9-2.1-.8-1-1.1-2.5-1.1-4.4 0-1.2.2-2.2.5-3 .3-.8.8-1.5 1.5-2s1.5-.9 2.4-1.1c1-.2 2.1-.3 3.3-.3h1c.4 0 .7.1 1.1.1.4.1.7.1 1 .2.3.1.6.1.9.2v3.8c-.3-.1-.6-.1-1-.2s-.8-.1-1.2-.2c-.4-.1-.8-.1-1.2-.1h-1c-.9 0-1.6.2-2.1.5-.5.4-.7 1-.7 1.8 0 .5 0 .9.1 1.3.1.3.2.6.4.8.2.2.5.4.8.5.3.1.7.2 1.3.4.8.2 1.5.4 2.1.7.6.3 1.2.7 1.6 1.3.5.5.8 1.2 1.1 2 .3.8.4 1.8.4 3z"/>
</svg>
